HIERARCHY
ROOT Hips
{
	OFFSET 0.000000 0.000000 0.000000
	CHANNELS 6 Xposition Yposition Zposition Zrotation Yrotation Xrotation 
	JOINT LHipJoint
	{
		OFFSET 0.000000 0.000000 0.000000
		CHANNELS 3 Zrotation Yrotation Xrotation
		JOINT LeftUpLeg
		{
			OFFSET 1.363060 -1.794630 0.839290
			CHANNELS 3 Zrotation Yrotation Xrotation
			JOINT LeftLeg
			{
				OFFSET 2.448110 -6.726130 0.000000
				CHANNELS 3 Zrotation Yrotation Xrotation
				JOINT LeftFoot
				{
					OFFSET 2.562200 -7.039590 0.000000
					CHANNELS 3 Zrotation Yrotation Xrotation
					JOINT LeftToeBase
					{
						OFFSET 0.157640 -0.433110 2.322550
						CHANNELS 3 Zrotation Yrotation Xrotation
						End Site
						{
							OFFSET 0.000000 0.000000 0.000000
						}
					}
				}
			}
		}
	}
	JOINT RHipJoint
	{
		OFFSET 0.000000 0.000000 0.000000
		CHANNELS 3 Zrotation Yrotation Xrotation
		JOINT RightUpLeg
		{
			OFFSET -1.305520 -1.794630 0.839290
			CHANNELS 3 Zrotation Yrotation Xrotation
			JOINT RightLeg
			{
				OFFSET -2.542530 -6.985550 0.000000
				CHANNELS 3 Zrotation Yrotation Xrotation
				JOINT RightFoot
				{
					OFFSET -2.568260 -7.056230 0.000000
					CHANNELS 3 Zrotation Yrotation Xrotation
					JOINT RightToeBase
					{
						OFFSET -0.164730 -0.452590 2.363150
						CHANNELS 3 Zrotation Yrotation Xrotation
						End Site
						{
							OFFSET 0.000000 0.000000 0.000000
						}
					}
				}
			}
		}
	}
	JOINT LowerBack
	{
		OFFSET 0.000000 0.000000 0.000000
		CHANNELS 3 Zrotation Yrotation Xrotation
		JOINT Spine
		{
			OFFSET 0.028270 2.035590 -0.193380
			CHANNELS 3 Zrotation Yrotation Xrotation
			JOINT Spine1
			{
				OFFSET 0.056720 2.048850 -0.042750
				CHANNELS 3 Zrotation Yrotation Xrotation
				JOINT Neck
				{
					OFFSET 0.000000 0.000000 0.000000
					CHANNELS 3 Zrotation Yrotation Xrotation
					JOINT Neck1
					{
						OFFSET -0.054170 1.746240 0.172020
						CHANNELS 3 Zrotation Yrotation Xrotation
						JOINT Head
						{
							OFFSET 0.104070 1.761360 -0.123970
							CHANNELS 3 Zrotation Yrotation Xrotation
							End Site
							{
								OFFSET 0.000000 0.000000 0.000000
							}
						}
					}
				}
				JOINT LeftShoulder
				{
					OFFSET 0.000000 0.000000 0.000000
					CHANNELS 3 Zrotation Yrotation Xrotation
					JOINT LeftArm
					{
						OFFSET 3.362410 1.200890 -0.311210
						CHANNELS 3 Zrotation Yrotation Xrotation
						JOINT LeftForeArm
						{
							OFFSET 4.983000 -0.000000 -0.000000
							CHANNELS 3 Zrotation Yrotation Xrotation
							JOINT LeftHand
							{
								OFFSET 3.483560 -0.000000 -0.000000
								CHANNELS 3 Zrotation Yrotation Xrotation
								JOINT LeftFingerBase
								{
									OFFSET 0.000000 0.000000 0.000000
									CHANNELS 3 Zrotation Yrotation Xrotation
									JOINT LeftHandIndex1
									{
										OFFSET 0.715260 -0.000000 -0.000000
										CHANNELS 3 Zrotation Yrotation Xrotation
										End Site
										{
											OFFSET 0.000000 0.000000 0.000000
										}
									}
								}
								JOINT LThumb
								{
									OFFSET 0.000000 0.000000 0.000000
									CHANNELS 3 Zrotation Yrotation Xrotation
									End Site
									{
										OFFSET 0.000000 0.000000 0.000000
									}
								}
							}
						}
					}
				}
				JOINT RightShoulder
				{
					OFFSET 0.000000 0.000000 0.000000
					CHANNELS 3 Zrotation Yrotation Xrotation
					JOINT RightArm
					{
						OFFSET -3.136600 1.374050 -0.404650
						CHANNELS 3 Zrotation Yrotation Xrotation
						JOINT RightForeArm
						{
							OFFSET -5.241900 -0.000000 -0.000000
							CHANNELS 3 Zrotation Yrotation Xrotation
							JOINT RightHand
							{
								OFFSET -3.444170 -0.000000 -0.000000
								CHANNELS 3 Zrotation Yrotation Xrotation
								JOINT RightFingerBase
								{
									OFFSET 0.000000 0.000000 0.000000
									CHANNELS 3 Zrotation Yrotation Xrotation
									JOINT RightHandIndex1
									{
										OFFSET -0.622530 -0.000000 -0.000000
										CHANNELS 3 Zrotation Yrotation Xrotation
										End Site
										{
											OFFSET 0.000000 0.000000 0.000000
										}
									}
								}
								JOINT RThumb
								{
									OFFSET 0.000000 0.000000 0.000000
									CHANNELS 3 Zrotation Yrotation Xrotation
									End Site
									{
										OFFSET 0.000000 0.000000 0.000000
									}
								}
							}
						}
					}
				}
			}
		}
	}
}
MOTION
Frames: 7
Frame Time: 0.008333
-42.653382 16.414883 13.464391 26.971828 66.279233 28.201021 -4.305116 -9.362028 -10.970162 -8.695639 16.117773 -39.672853 -1.187278 8.560330 14.342732 6.161414 16.829848 59.983935 3.955200 -12.100600 -36.088800 -10.049315 -7.235581 3.028550 -18.057083 -5.930516 -14.161135 -4.047194 -8.937446 27.276212 -6.195545 -0.668956 33.772797 -6.017900 14.445600 -45.053400 -6.548689 13.234497 38.091533 -4.980382 1.506625 5.113260 1.891877 9.147039 0.381932 -6.129179 -11.794347 -3.909712 7.804469 -18.777021 3.077709 10.140700 -5.898400 -4.115700 0.100184 0.551023 0.230698 -87.484337 29.379031 67.967135 21.057114 -40.834112 -8.794349 -0.803669 -5.512885 -22.916143 23.663606 26.249346 14.346400 -7.125000 0.000000 0.000000 -6.003700 63.479300 -2.696100 0.344609 5.859676 3.592067 32.314460 26.651173 5.670460 -29.526230 34.961757 -24.709208 -2.345175 0.025189 13.841257 -5.089016 25.058574 -1.229300 7.125000 0.000000 0.000000 16.200900 -5.109800 15.333300 
-41.981872 16.296147 13.181166 21.523801 63.918510 23.006724 -2.817935 -8.090709 -9.867346 -6.246133 13.514042 -38.259199 -1.143324 9.455852 17.837127 5.336299 10.786662 55.088949 6.458200 -14.858100 -46.793900 -10.039723 -7.124389 3.075759 -18.606425 -3.580071 -13.198232 -3.487162 -7.898852 24.546418 -5.834166 -2.342291 36.142819 -6.564800 14.954100 -47.208300 -7.366592 13.537406 37.326004 -4.761934 1.618358 4.919354 1.966457 8.863436 -0.093885 -6.443501 -11.606755 -3.273701 8.198885 -18.928524 3.095478 10.895100 -5.914300 -3.980200 0.201690 0.812800 0.338930 -89.095661 29.777074 68.631155 20.867562 -40.305495 -8.470456 -0.502009 -5.197427 -25.099625 21.333957 23.692919 11.815600 -7.125000 0.000000 0.000000 -7.490800 59.998700 -2.750900 -0.329240 5.287140 3.575213 35.032498 25.231704 6.060326 -34.947918 38.324586 -31.217547 -2.456905 0.592470 14.380923 2.214316 25.415815 2.030100 7.125000 0.000000 0.000000 20.597000 -5.782300 19.771600 
-41.354748 16.226895 12.903909 16.238792 61.605895 18.416896 -0.184933 -7.364507 -9.370052 -8.559108 15.105962 -42.258889 -1.431869 10.808673 24.641078 6.609500 -1.996695 48.617516 9.710300 -17.243700 -58.515600 -9.808308 -6.952275 3.331666 -18.731832 -1.295017 -12.568969 -2.785550 -6.657349 21.376363 -5.718824 -3.868979 40.002667 -6.417300 14.820900 -46.634200 -7.495697 13.525186 36.124262 -4.383746 1.776702 4.558742 0.957824 8.671787 0.430106 -5.754105 -11.743837 -3.462133 8.519018 -19.565485 3.073031 11.433000 -6.111400 -3.851200 0.002772 1.443279 0.526648 -88.818936 29.180993 71.034376 20.888301 -40.008943 -8.399561 -0.171258 -4.930530 -26.417536 18.675371 20.777708 9.241700 -7.125000 0.000000 0.000000 -9.297000 56.272100 -2.585700 -0.928789 4.460079 3.570204 37.853464 24.037696 6.914644 -40.573860 41.534707 -37.789188 -1.852298 0.745604 6.761356 7.414902 24.000802 3.731000 7.125000 0.000000 0.000000 23.365200 -7.759300 21.960500 
-40.752366 16.283590 12.591839 7.712025 59.556441 10.052760 2.264443 -5.218455 -9.345153 -11.094867 20.193344 -46.635504 1.248836 12.827857 29.358483 5.454542 1.629620 51.195948 5.396600 -13.816900 -42.509000 -8.009558 -6.945380 4.095439 -17.835132 0.748925 -12.165240 -2.468448 -5.972644 18.209854 -3.689670 -10.252415 42.754684 -6.840300 15.196000 -48.267900 -5.739751 12.922883 36.135891 -4.302354 1.683452 4.740165 0.990752 8.426284 -0.424029 -6.047625 -11.792442 -3.035067 8.761531 -19.957794 3.093022 11.873700 -6.307100 -3.480700 0.232963 1.474671 0.486611 -90.313554 29.762211 72.143917 21.235241 -39.875587 -8.301741 -0.150086 -4.525470 -26.719307 17.370095 17.797537 7.487900 -7.125000 0.000000 0.000000 -9.481400 52.616700 -1.790300 -1.364422 4.249108 3.469835 39.733060 21.996832 8.181911 -46.349636 44.679636 -44.726069 -1.375967 0.701125 -3.451903 14.415927 21.079853 5.549300 7.125000 0.000000 0.000000 27.303300 -10.563400 24.939100 
-40.170125 16.356199 12.302894 4.895095 57.282204 7.422726 3.566391 -3.795681 -9.113692 -15.109558 24.293731 -51.454684 4.234643 14.756854 34.766425 3.458961 7.087329 48.729438 1.015300 -6.410800 -17.981100 -7.420896 -7.436938 4.027414 -17.698554 1.445477 -12.491920 -2.661700 -5.850859 15.368400 -1.095216 -17.865951 43.830678 -7.533400 15.765100 -50.863900 -6.432616 12.565979 35.663359 -4.007362 1.400675 4.550821 1.157672 7.972436 0.005080 -6.030705 -11.973457 -3.694876 8.920892 -20.521401 3.077918 11.922700 -6.528900 -3.027600 0.216573 1.628865 0.615151 -90.834352 28.630753 74.545750 20.591472 -38.804884 -7.469889 -0.545448 -3.865629 -27.414071 18.461254 10.869046 5.250400 -7.125000 0.000000 0.000000 -6.210700 44.848700 0.023300 -1.684389 3.801942 3.327915 40.899780 20.709337 8.042109 -51.322115 47.482128 -51.041686 -0.961511 0.427416 -13.647006 20.311378 16.796615 6.099100 7.125000 0.000000 0.000000 30.880000 -13.900100 26.896500 
-39.596463 16.359929 12.049260 4.549801 54.775037 7.090493 4.144859 -2.989253 -8.127102 -18.822701 27.247898 -54.971114 5.400687 15.777045 39.838533 2.993360 4.583658 43.586376 0.927100 -6.133900 -17.173500 -7.456311 -7.727370 3.317038 -17.771359 0.907898 -13.259702 -2.994380 -5.918980 13.324038 1.093233 -24.050910 43.950357 -7.720600 15.909900 -51.550000 -9.072629 12.093891 34.880316 -3.573542 0.976845 4.232524 2.740821 7.082617 0.112260 -7.373207 -11.814724 -3.366809 9.071217 -20.685952 3.004167 12.377700 -6.503100 -3.081000 0.430595 1.411150 0.808618 -92.411422 28.734745 74.943376 21.134367 -39.228851 -7.277092 -1.135490 -2.575609 -26.006998 19.612170 0.061093 0.784000 -7.125000 0.000000 0.000000 -3.861700 32.077400 1.223800 -2.047883 3.542156 3.289659 40.922542 19.788942 8.473196 -55.157863 49.725825 -55.634349 -0.804577 0.054938 -22.366987 25.192489 12.044069 5.580300 7.125000 0.000000 0.000000 34.255600 -17.276500 28.163300 
-39.021683 16.399217 11.767278 0.952902 52.907681 3.473519 4.629309 -2.485415 -7.707800 -17.821828 27.339914 -54.588418 6.724383 16.496114 43.067410 2.009389 5.506580 39.250499 0.511300 -4.583500 -12.724400 -6.217686 -7.818599 3.115708 -16.727602 -0.394964 -14.192411 -3.135239 -6.316548 12.346245 3.001124 -28.965323 43.330125 -7.081200 15.399900 -49.180600 -7.309101 11.599008 35.753163 -3.274535 0.772149 3.826131 -0.023008 7.104580 0.810448 -4.539401 -12.917215 -4.402163 9.304175 -22.547263 2.420989 11.854100 -7.252800 -3.288800 -0.135812 1.976552 0.888438 -88.372881 26.598211 79.033243 20.006937 -37.995630 -7.011491 -0.692643 -2.824601 -25.245928 15.608824 0.678950 0.941300 -7.125000 0.000000 0.000000 -7.423600 33.053000 2.189000 -1.824456 3.180134 3.269896 42.050786 19.159579 7.000989 -55.823850 50.282031 -57.118610 -0.577741 -0.089324 -25.686568 25.703911 10.919226 5.232600 7.125000 0.000000 0.000000 34.648100 -18.034100 27.909500 
